# This file uses centimeters as units for non-parametric coordinates.

mtllib rock3lvl0.mtl
g default
v -16.037239 2.083372 -10.746284
v -15.755737 3.069642 -11.387799
v -15.982629 1.692695 -10.778344
v -14.209005 1.608213 -11.638801
v -15.410814 3.061643 -12.736268
v -14.402738 1.744634 -12.960645
v -14.737831 2.032978 -13.197497
v -15.115240 1.955467 -13.199510
v -13.392822 1.505073 -13.937919
v -15.985344 1.459864 -11.570859
v -13.633667 1.149607 -15.041028
v -15.850572 1.161427 -13.162292
v -16.671295 0.855175 -13.572062
v -14.919218 0.684503 -15.577024
v -15.822734 1.134912 -15.565801
v -15.994710 0.768293 -15.900891
v -14.178211 1.643754 -12.217362
v -13.949018 0.974329 -15.242274
v -16.297939 1.389363 -12.058976
v -14.797393 0.872657 -15.552571
v -16.268484 0.644732 -14.449945
v -15.722156 0.596786 -15.311204
v -14.892631 1.511403 -10.817098
v -16.145427 1.791774 -11.525834
v -15.885055 1.366364 -10.827603
v -14.606819 1.566456 -11.095115
v -14.579246 1.928818 -12.195989
v -16.423280 2.315211 -12.028615
v -14.262323 1.836391 -12.242829
v -14.035204 1.406852 -13.101367
v -16.340210 2.238219 -12.570176
v -15.943689 1.399564 -11.502084
v -14.757612 2.396403 -13.961228
v -14.698526 2.000740 -13.151256
v -15.287260 2.123141 -13.714341
v -16.076122 1.466510 -11.803723
v -16.244386 1.442895 -11.995669
v -15.473890 2.220610 -13.914741
v -14.886161 2.536971 -14.191365
v -16.391241 1.642674 -12.326533
v -15.554433 2.001109 -13.559665
v -16.466228 1.685682 -12.621017
v -16.422388 1.384309 -14.221309
v -16.508916 1.256195 -12.527963
v -16.265741 1.259988 -13.616513
v -16.480243 1.377087 -14.771148
v -15.849170 1.046225 -13.349689
v -16.344646 1.212752 -13.032983
v -15.879478 1.015037 -13.373565
v -16.325616 0.781944 -13.847726
v -16.515550 0.905629 -12.913442
v -14.913368 0.849491 -15.607427
v -15.150888 0.689092 -15.892034
v -16.354557 0.703628 -13.995420
vt 0.256291 0.910832
vt 0.048074 0.882449
vt 0.254511 0.781478
vt 0.385386 0.902826
vt 0.259830 0.954601
vt 0.001733 0.669401
vt 0.014505 0.802924
vt 0.108500 0.596301
vt 0.073879 0.573905
vt 0.289120 0.639631
vt 0.098804 0.391520
vt 0.432173 0.723488
vt 0.152787 0.458641
vt 0.244444 0.463787
vt 0.399435 0.963900
vt 0.126105 0.200629
vt 0.233530 0.465844
vt 0.314090 0.358218
vt 0.409374 0.947157
vt 0.370274 0.453018
vt 0.269675 0.034304
vt 0.449920 0.911478
vt 0.401478 0.435172
vt 0.486664 0.864304
vt 0.348615 0.338800
vt 0.493052 0.787068
vt 0.408298 0.491278
vt 0.527921 0.593770
vt 0.499092 0.731666
vt 0.598616 0.553301
vt 0.658232 0.358730
vt 0.637320 0.443472
vt 0.557278 0.755602
vt 0.539962 0.581546
vt 0.570783 0.651811
vt 0.709503 0.522956
vt 0.614144 0.690469
vt 0.539296 0.011418
vt 0.684460 0.603108
vt 0.599912 0.031114
vt 0.650889 0.185987
vt 0.757597 0.411023
vt 0.263213 0.999901
vt 0.400387 0.794149
vt 0.043389 0.562689
vt 0.306167 0.500014
vt 0.341375 0.005392
vt 0.501888 0.852864
vt 0.542250 0.580124
vt 0.510343 0.031117
vt 0.533357 0.035292
vt 0.717990 0.140556
vt 0.726276 0.499820
vt 0.785187 0.231122
vn -0.950982 0.045812 0.305835
vn 0.156740 0.584397 0.796186
vn 0.264248 0.884165 0.385260
vn -0.867186 0.496883 0.033095
vn -0.906359 -0.365446 0.212044
vn -0.466763 -0.241377 0.850805
vn 0.461360 0.817874 -0.343844
vn 0.367903 0.875813 -0.312409
vn 0.663188 0.709591 0.238039
vn 0.580729 0.549925 0.600280
vn 0.247508 0.918915 0.307140
vn 0.424741 0.900427 0.093952
vn -0.076041 0.888673 0.452192
vn 0.184290 0.890558 0.415865
vn 0.535154 0.843819 0.039747
vn 0.454181 0.890855 -0.009793
vn -0.670985 0.591316 -0.447353
vn -0.592605 0.638087 -0.491594
vn -0.709352 -0.539096 0.454087
vn -0.922845 -0.172508 0.344382
vn -0.904689 0.103372 0.413343
vn -0.984869 -0.031867 0.170343
vn -0.996573 0.081686 -0.013044
vn 0.185517 0.630347 -0.753821
vn 0.266709 0.701517 -0.660864
vn 0.190322 0.715378 -0.672319
vn -0.271377 0.611599 -0.743170
vn -0.310108 -0.214202 0.926256
vn 0.530435 0.807448 0.258199
vn 0.673432 0.738852 0.024228
vn -0.938831 -0.333803 0.084686
vn 0.734294 0.661366 -0.152992
vn 0.193536 0.979439 0.056942
vn 0.546779 0.837275 0.002149
vn 0.526145 0.821231 -0.220795
vn 0.247872 0.658149 -0.710914
vn -0.010623 0.811228 -0.584634
vn -0.489171 0.837620 -0.243113
vn -0.766547 0.555967 0.321413
vn -0.654434 0.274998 -0.704338
vn -0.781078 0.279711 -0.558282
vn -0.745215 0.527467 -0.407962
vn -0.856357 0.488008 0.168824
vn -0.550789 0.612072 -0.567450
vn -0.402739 0.296206 0.866062
vn -0.402739 0.296206 0.866062
vn -0.964848 0.244515 0.096340
vn -0.535497 0.816205 -0.216915
vn -0.535497 0.816205 -0.216915
vn -0.988289 -0.128039 0.083018
vn -0.457603 0.707227 -0.538915
vn 0.762399 -0.143305 -0.631040
vn -0.885176 -0.341468 -0.316011
vn -0.817199 -0.388273 -0.425947
s 1
g rock3
usemtl initialShadingGroup
f 24/4/1 1/1/2 2/3/3 28/44/4
f 10/19/5 3/5/6 1/1/2 24/4/1
f 8/46/7 5/10/8 2/3/3 27/8/9
f 27/8/9 23/2/10 26/7/11 29/9/12
f 35/20/13 7/14/14 30/11/15 33/18/16
f 31/12/17 5/10/8 8/46/7 41/27/18
f 36/22/19 10/19/5 24/4/1 37/24/20
f 19/48/21 37/24/20 40/26/22 44/33/23
f 20/50/24 52/51/25 53/40/26 15/41/27
f 1/1/2 3/5/6 25/43/28 23/2/10
f 2/3/3 1/1/2 23/2/10 27/8/9
f 26/7/11 4/6/29 17/45/30 29/9/12
f 25/43/28 3/5/6 10/19/5 32/15/31
f 2/3/3 5/10/8 31/12/17 28/44/4
f 6/13/32 17/45/30 30/11/15
f 17/45/30 6/13/32 34/17/33 29/9/12
f 34/17/33 8/46/7 27/8/9 29/9/12
f 7/14/14 34/17/33 30/11/15
f 34/17/33 6/13/32 30/11/15
f 30/11/15 9/16/34 11/21/35 33/18/16
f 34/17/33 7/14/14 35/20/13 41/27/18
f 11/21/35 18/47/36 39/25/37 33/18/16
f 39/25/37 38/23/38 35/20/13 33/18/16
f 8/46/7 34/17/33 41/27/18
f 35/20/13 38/23/38 45/30/39 41/27/18
f 12/28/40 31/12/17 41/27/18
f 37/24/20 24/4/1 28/44/4 40/26/22
f 28/44/4 31/12/17 42/29/41 40/26/22
f 15/41/27 46/31/42 38/23/38 39/25/37
f 18/47/36 20/50/24 15/41/27 39/25/37
f 38/23/38 46/31/42 43/32/43 45/30/39
f 42/29/41 31/12/17 12/28/40 48/35/44
f 40/26/22 42/29/41 48/35/44 44/33/23
f 45/30/39 49/49/45 47/34/46 41/27/18
f 12/28/40 45/30/39 48/35/44
f 48/35/44 45/30/39 50/36/47
f 50/36/47 13/39/48 51/37/49 48/35/44
f 45/30/39 43/32/43 54/53/50 50/36/47
f 15/41/27 53/40/26 16/52/51
f 14/38/52 53/40/26 52/51/25
f 52/51/25 20/50/24 14/38/52
f 43/32/43 46/31/42 21/42/53 54/53/50
f 16/52/51 22/54/54 15/41/27
f 21/42/53 46/31/42 15/41/27 22/54/54
