# This file uses centimeters as units for non-parametric coordinates.

mtllib grass-lvl0.mtl
g default
v 7.748961 15.571947 25.472378
v 14.906059 15.695411 26.860172
v 18.985094 15.190276 26.860172
v 21.341326 14.384767 24.937719
v 5.718357 15.524267 23.136913
v 14.906059 17.080761 23.136913
v 18.827545 16.902260 23.136913
v 22.749031 14.645592 23.136915
v 5.718357 15.965535 19.413654
v 14.906059 17.127996 19.413654
v 18.827545 16.699005 19.413654
v 22.749031 15.876606 19.413654
v 8.175363 17.183847 16.113386
v 14.906059 15.488419 15.690396
v 18.827545 15.609108 15.690397
v 21.692150 12.683990 16.599457
v 10.337113 17.565582 19.413654
v 12.955947 15.535488 15.690396
v 10.337113 17.074289 26.860172
v 10.337113 17.625250 23.136913
v 14.906059 16.264412 17.598267
v 11.614006 17.449984 17.598267
v 6.916345 17.109497 17.804508
v 21.811962 16.232088 18.041506
v 18.827545 17.293009 17.598267
v 24.228718 13.987763 6.428674
v 30.511131 14.388726 7.190903
v 32.668945 13.545996 6.712833
v 33.515373 12.763622 4.591779
v 22.371786 13.508487 4.777288
v 29.694616 14.835066 3.540503
v 32.067757 13.441515 3.079756
v 33.686951 12.047964 2.619009
v 21.977373 14.036913 1.089224
v 29.694616 16.066080 -0.182756
v 32.067757 14.672528 -0.643503
v 34.440895 9.396686 -1.104250
v 24.599571 13.932327 -2.601031
v 28.777401 14.171199 -3.824171
v 31.210815 13.660610 -4.290295
v 32.141827 10.290960 -3.761631
v 26.545288 15.508545 0.388361
v 27.620771 14.075606 -3.597143
v 26.555786 14.579975 7.833941
v 26.685905 16.036411 4.099072
v 29.247400 15.891520 -1.958239
v 27.069674 15.339574 -1.554893
v 23.255905 13.770758 -0.710073
v 33.950680 9.591226 -2.399937
v 31.902874 14.987095 -2.444179
v 19.796673 8.702832 34.741306
v 25.983023 6.609495 33.314369
v 28.203516 6.047528 32.676414
v 29.216770 5.917108 32.431656
v 18.074455 8.712340 34.117912
v 25.372402 9.173914 33.626328
v 29.057085 8.172544 33.160736
v 29.545702 7.173745 31.854691
v 17.882143 9.982439 32.032772
v 25.538990 9.858079 33.099648
v 29.600380 8.856709 32.604111
v 30.661100 6.784804 29.218222
v 20.725170 10.743235 29.877911
v 24.947157 9.231944 29.632603
v 27.424295 8.928380 29.281193
v 28.490601 8.112061 27.812422
v 23.418903 9.296951 33.395374
v 23.786686 9.108019 29.613018
v 21.996292 6.625388 34.850361
v 23.767670 8.881477 34.369862
v 25.212149 10.156956 31.830271
v 23.047672 9.635672 31.569052
v 19.279339 10.183599 30.861195
v 30.243032 7.239232 28.457169
v 27.931673 9.546426 31.266108
v -7.165935 12.533411 33.875729
v -0.234815 13.441946 31.802227
v 3.312338 13.764091 29.750982
v 4.411330 14.266716 26.846487
v -10.074939 13.048389 32.952408
v -1.994718 16.185211 29.530865
v 1.425750 16.769768 27.695490
v 4.776383 15.494493 24.935505
v -11.866567 14.946756 30.261003
v -3.799587 17.730940 26.664150
v -0.387536 18.091328 24.717329
v 3.011295 15.864511 22.595474
v -11.280004 17.836075 27.143196
v -5.661139 17.767073 23.046944
v -2.230617 15.803063 21.344685
v 0.615145 16.178211 19.465601
v -7.777079 17.255356 28.904715
v -7.363503 17.439060 23.941103
v -4.180676 13.808763 34.461590
v -5.968616 15.805297 31.818991
v -4.709400 17.691139 24.871925
v -7.546049 18.127316 26.873518
v -11.562090 16.847692 28.985498
v 1.538719 16.558865 22.109005
v -1.248368 17.230579 23.573610
v -9.523162 18.411140 1.795351
v -2.366064 22.297029 3.183145
v 1.712970 22.270348 3.183145
v 4.069202 21.150274 1.260691
v -11.553766 18.363461 -0.540114
v -2.366064 21.893110 -0.540114
v 1.555422 21.893110 -0.540114
v 5.476907 21.092731 -0.540114
v -11.553766 18.804729 -4.263373
v -2.366064 23.124123 -4.263373
v 1.555422 23.124123 -4.263373
v 5.476907 22.323746 -4.263373
v -9.096761 20.913521 -7.563642
v -2.366064 22.518566 -7.986631
v 1.555422 22.639257 -7.986631
v 4.420027 23.322083 -7.077572
v -6.935010 22.354488 -4.263373
v -4.316177 22.565636 -7.986631
v -6.935010 19.913483 3.183145
v -6.935010 21.405037 -0.540114
v -2.366064 22.365593 -6.078761
v -5.658118 21.535707 -6.078761
v -10.355779 19.948690 -5.872519
v 4.961593 23.220644 -5.635522
v 1.555422 23.394192 -6.078761
vt 0.775231 0.794799
vt 0.917285 0.794563
vt 0.914997 0.832458
vt 0.770615 0.847276
vt 0.788216 0.685547
vt 0.831205 0.693911
vt 0.898298 0.873555
vt 0.782100 0.898960
vt 0.790754 0.580618
vt 0.805484 0.638811
vt 0.733132 0.674012
vt 0.720148 0.783264
vt 0.837850 0.291166
vt 0.886912 0.253122
vt 0.964011 0.248802
vt 0.861019 0.291055
vt 0.866149 0.218470
vt 0.873553 0.215348
vt 0.983051 0.263837
vt 0.898806 0.326935
vt 0.474758 0.443227
vt 0.434546 0.368234
vt 0.542430 0.368234
vt 0.542430 0.502065
vt 0.434546 0.235846
vt 0.542430 0.235846
vt 0.650313 0.368234
vt 0.650313 0.502065
vt 0.434546 0.117653
vt 0.542430 0.122218
vt 0.650313 0.235846
vt 0.702915 0.331235
vt 0.696939 0.467353
vt 0.490250 0.049380
vt 0.542430 0.008591
vt 0.650313 0.122218
vt 0.702915 0.235846
vt 0.758197 0.292351
vt 0.745941 0.430872
vt 0.650313 0.008591
vt 0.703238 0.125224
vt 0.758197 0.235846
vt 0.694251 0.036170
vt 0.753373 0.115780
vt 0.559489 0.589867
vt 0.626917 0.549148
vt 0.630687 0.657368
vt 0.505683 0.637717
vt 0.741525 0.567781
vt 0.626613 0.764888
vt 0.494255 0.744581
vt 0.641807 0.821195
vt 0.531301 0.796716
vt 0.704908 0.832883
vt 0.657776 0.880371
vt 0.570234 0.851508
vt 0.691290 0.886949
vt 0.808383 0.615512
vt 0.817007 0.451429
vt 0.838230 0.461499
vt 0.877713 0.621930
vt 0.834760 0.405602
vt 0.846799 0.400068
vt 0.891149 0.472255
vt 0.911660 0.581445
vt 0.883580 0.409538
vt 0.947827 0.450842
vt 0.940151 0.539551
vt 0.947259 0.417216
vt 0.957441 0.345440
vt 1.000000 0.314543
vt 0.142871 0.196197
vt 0.196052 0.097087
vt 0.282346 0.149628
vt 0.225936 0.248494
vt 0.077057 0.145203
vt 0.136493 0.042422
vt 0.276024 0.000000
vt 0.343828 0.051144
vt 0.315486 0.174571
vt 0.277866 0.274856
vt 0.161014 0.363744
vt 0.076571 0.311343
vt 0.220652 0.010578
vt 0.000000 0.259536
vt 0.357924 0.093813
vt 0.380070 0.203032
vt 0.330746 0.302434
vt 0.219869 0.357050
vt 0.043729 0.430326
vt 0.121715 0.482240
vt 0.016976 0.346036
vt 0.434518 0.120574
vt 0.304838 0.351761
vt 0.158673 0.473417
vt 0.212055 0.465244
vt 0.172492 0.635986
vt 0.172492 0.517794
vt 0.280375 0.522359
vt 0.280375 0.635986
vt 0.228196 0.449520
vt 0.280375 0.408731
vt 0.388259 0.522359
vt 0.388259 0.635986
vt 0.280375 0.768374
vt 0.172492 0.768374
vt 0.388259 0.408731
vt 0.440861 0.522359
vt 0.440861 0.635986
vt 0.388259 0.768374
vt 0.212704 0.843367
vt 0.280375 0.902205
vt 0.428018 0.423663
vt 0.496143 0.522359
vt 0.496143 0.635986
vt 0.440861 0.731375
vt 0.388259 0.902205
vt 0.469802 0.439355
vt 0.496143 0.692492
vt 0.434885 0.867493
vt 0.483886 0.831012
vt 0.794567 0.000000
vt 0.805152 0.565087
vt 0.752992 0.494625
vt 0.766318 0.379878
vt 0.757828 0.314054
vn -0.470211 0.852486 0.228406
vn -0.025743 0.966914 0.253802
vn -0.112063 0.985501 0.127400
vn -0.401226 0.910624 0.098900
vn 0.140058 0.938704 0.314989
vn 0.222151 0.892423 0.392721
vn 0.230887 0.949386 0.212971
vn 0.121214 0.979913 0.158363
vn 0.497391 0.775214 0.389417
vn 0.412548 0.884569 0.217583
vn -0.128065 0.991232 0.032524
vn -0.339851 0.938115 0.066645
vn 0.183423 0.981347 0.057573
vn 0.085598 0.995089 -0.049705
vn 0.342594 0.928700 0.141938
vn -0.198556 0.968932 0.147468
vn -0.198556 0.968932 0.147468
vn 0.173686 0.885110 -0.431755
vn 0.033073 0.931880 -0.361257
vn 0.458758 0.787501 -0.411563
vn 0.200206 0.940517 -0.274491
vn 0.005500 0.843886 -0.536494
vn 0.195768 0.832559 -0.518190
vn 0.099813 0.913313 -0.394837
vn 0.099813 0.913313 -0.394837
vn 0.099813 0.913313 -0.394837
vn 0.099813 0.913313 -0.394837
vn 0.486819 0.463075 -0.740654
vn 0.247894 0.665311 -0.704208
vn -0.432637 0.852505 0.293361
vn -0.027520 0.963979 0.264553
vn -0.134315 0.980318 0.144696
vn -0.416081 0.904172 0.096692
vn 0.320788 0.940565 0.111505
vn 0.453919 0.888967 -0.060790
vn 0.653243 0.755989 0.041893
vn 0.317680 0.936100 0.150983
vn 0.552161 0.817854 -0.161968
vn 0.826823 0.561570 -0.031679
vn -0.241502 0.969728 -0.036123
vn -0.403163 0.914591 -0.031350
vn 0.756442 0.653008 0.037095
vn 0.272499 0.955931 0.109272
vn 0.889952 0.450342 -0.071949
vn -0.372718 0.883954 -0.282323
vn -0.372718 0.883954 -0.282323
vn 0.656752 0.617899 -0.432293
vn 0.024018 0.930687 -0.365028
vn 0.886404 0.334524 -0.319971
vn -0.242269 0.928315 -0.282023
vn -0.048202 0.771093 -0.634896
vn -0.259968 0.764846 -0.589430
vn -0.322082 0.859840 -0.396154
vn -0.322082 0.859840 -0.396154
vn -0.322082 0.859840 -0.396154
vn -0.322082 0.859840 -0.396154
vn 0.749703 0.213841 -0.626273
vn 0.556765 0.453019 -0.696266
vn 0.064353 0.435977 0.897654
vn 0.221044 0.214388 0.951408
vn 0.208670 0.427322 0.879689
vn -0.021906 0.847737 0.529964
vn 0.232876 -0.129754 0.963811
vn 0.240046 -0.182207 0.953508
vn 0.388472 0.026827 0.921070
vn 0.257516 0.150217 0.954526
vn 0.627663 -0.198861 0.752658
vn 0.813833 -0.218371 0.538508
vn -0.034255 0.915981 0.399757
vn 0.014414 0.924145 0.381770
vn 0.710518 0.653098 0.261967
vn 0.117229 0.893671 0.433140
vn 0.686172 0.711840 -0.149842
vn 0.083816 0.975308 0.204324
vn 0.083816 0.975308 0.204324
vn 0.346469 0.927736 -0.138796
vn 0.019998 0.997429 -0.068812
vn 0.553059 0.799865 -0.233114
vn -0.199546 0.977397 -0.069837
vn -0.000055 0.934586 -0.355737
vn -0.151146 0.927592 -0.341654
vn 0.283887 0.933002 0.221170
vn 0.283887 0.933002 0.221170
vn 0.283887 0.933002 0.221170
vn 0.283887 0.933002 0.221170
vn 0.429587 0.856477 -0.286185
vn 0.288011 0.901203 -0.323855
vn -0.271389 0.581447 0.766986
vn 0.133139 0.757958 0.638571
vn -0.002988 0.809251 0.587456
vn -0.271993 0.698865 0.661519
vn 0.306749 0.739475 0.599234
vn 0.414639 0.682250 0.602171
vn 0.357453 0.845401 0.396894
vn 0.215676 0.836024 0.504528
vn 0.649592 0.630930 0.424214
vn 0.532278 0.836754 0.128542
vn -0.062809 0.849654 0.523587
vn -0.233091 0.748142 0.621251
vn 0.212218 0.975090 0.064521
vn 0.083279 0.957002 0.277870
vn 0.420978 0.904475 -0.068578
vn -0.069382 0.769902 0.634379
vn -0.069382 0.769902 0.634379
vn 0.024090 0.944793 -0.326781
vn 0.048028 0.984947 -0.166048
vn 0.015615 0.940112 -0.340507
vn 0.073361 0.990547 0.115912
vn 0.074226 0.957311 -0.279366
vn -0.052384 0.991494 -0.119145
vn -0.073663 0.995742 0.055423
vn -0.073663 0.995742 0.055423
vn -0.073663 0.995742 0.055423
vn -0.073663 0.995742 0.055423
vn -0.128583 0.945094 -0.300438
vn -0.001116 0.940723 -0.339173
vn -0.545979 0.755104 0.362939
vn -0.409008 0.881268 0.236810
vn -0.397432 0.891016 0.219406
vn -0.568848 0.794267 0.213432
vn -0.161280 0.986552 0.026521
vn 0.077346 0.993718 -0.080879
vn 0.103069 0.983103 0.151278
vn -0.118185 0.979014 0.166023
vn 0.289790 0.957041 -0.009743
vn 0.217052 0.948139 0.232210
vn -0.383479 0.921924 0.054783
vn -0.563798 0.821907 0.081247
vn 0.060111 0.967577 0.245317
vn -0.100779 0.988279 0.114665
vn 0.171755 0.934273 0.312466
vn -0.470633 0.843132 -0.260062
vn -0.470633 0.843132 -0.260062
vn -0.063457 0.996760 -0.049433
vn -0.155152 0.973615 -0.167338
vn 0.061992 0.982924 0.173258
vn -0.178359 0.936545 -0.301780
vn -0.146067 0.989238 0.008472
vn -0.143125 0.958442 0.246788
vn -0.291585 0.910303 0.293815
vn -0.291585 0.910303 0.293815
vn -0.291585 0.910303 0.293815
vn -0.291585 0.910303 0.293815
vn -0.039826 0.981910 -0.185110
vn -0.108256 0.980346 -0.164934
s 1
g grasslvl1
usemtl phong2SG
f 1/21/1 19/22/2 20/23/3 5/24/4
f 2/25/5 3/29/6 7/30/7 6/26/8
f 3/29/6 4/34/9 8/35/10 7/30/7
f 5/24/4 20/23/3 17/27/11 9/28/12
f 6/26/8 7/30/7 11/36/13 10/31/14
f 7/30/7 8/35/10 12/40/15 11/36/13
f 9/28/12 17/27/11 22/32/16 23/33/17
f 10/31/14 11/36/13 25/41/18 21/37/19
f 11/36/13 12/40/15 24/43/20 25/41/18
f 17/27/11 10/31/14 21/37/19 22/32/21
f 20/23/3 19/22/2 2/25/5 6/26/8
f 17/27/11 20/23/3 6/26/8 10/31/14
f 22/32/21 21/37/19 14/42/22 18/38/23
s off
f 23/33/24 22/32/25 18/38/26 13/39/27
s 1
f 25/41/18 24/43/20 16/122/28 15/44/29
f 21/37/19 25/41/18 15/44/29 14/42/22
s 3
f 26/45/30 44/46/31 45/47/32 30/48/33
f 27/49/34 28/9/35 32/5/36 31/11/37
f 28/9/35 29/10/38 33/6/39 32/5/36
f 30/48/33 45/47/32 42/50/40 34/51/41
f 31/11/37 32/5/36 36/1/42 35/12/43
f 32/5/36 33/6/39 37/2/44 36/1/42
f 34/51/41 42/50/40 47/52/45 48/53/46
f 35/12/43 36/1/42 50/4/47 46/54/48
f 36/1/42 37/2/44 49/3/49 50/4/47
f 42/50/40 35/12/43 46/54/48 47/52/50
f 45/47/32 44/46/31 27/49/34 31/11/37
f 42/50/40 45/47/32 31/11/37 35/12/43
f 47/52/50 46/54/48 39/57/51 43/55/52
s off
f 48/53/53 47/52/54 43/55/55 38/56/56
s 3
f 50/4/47 49/3/49 41/7/57 40/8/58
f 46/54/48 50/4/47 40/8/58 39/57/51
s 5
f 51/123/59 69/124/60 70/59/61 55/58/62
f 52/125/63 53/126/64 57/13/65 56/62/66
f 53/17/64 54/18/67 58/14/68 57/13/65
f 55/58/62 70/59/61 67/60/69 59/61/70
f 56/62/66 57/13/65 61/16/71 60/63/72
f 57/13/65 58/14/68 62/15/73 61/16/71
f 59/61/70 67/60/69 72/64/74 73/65/75
f 60/63/72 61/16/71 75/20/76 71/66/77
f 61/16/71 62/15/73 74/19/78 75/20/76
f 67/60/69 60/63/72 71/66/77 72/64/79
f 70/59/61 69/124/60 52/125/63 56/62/66
f 67/60/69 70/59/61 56/62/66 60/63/72
f 72/64/79 71/66/77 64/69/80 68/67/81
s off
f 73/65/82 72/64/83 68/67/84 63/68/85
s 5
f 75/20/76 74/19/78 66/71/86 65/70/87
f 71/66/77 75/20/76 65/70/87 64/69/80
s 7
f 76/92/88 94/85/89 95/83/90 80/90/91
f 77/76/92 78/77/93 82/73/94 81/72/95
f 78/77/93 79/84/96 83/78/97 82/73/94
f 80/90/91 95/83/90 92/82/98 84/91/99
f 81/72/95 82/73/94 86/74/100 85/75/101
f 82/73/94 83/78/97 87/79/102 86/74/100
f 84/91/99 92/82/98 97/89/103 98/95/104
f 85/75/101 86/74/100 100/80/105 96/81/106
f 86/74/100 87/79/102 99/86/107 100/80/105
f 92/82/98 85/75/101 96/81/106 97/89/108
f 95/83/90 94/85/89 77/76/92 81/72/95
f 92/82/98 95/83/90 81/72/95 85/75/101
f 97/89/108 96/81/106 89/88/109 93/94/110
s off
f 98/95/111 97/89/112 93/94/113 88/96/114
s 7
f 100/80/105 99/86/107 91/93/115 90/87/116
f 96/81/106 100/80/105 90/87/116 89/88/109
s 9
f 101/111/117 119/106/118 120/105/119 105/112/120
f 102/97/121 103/98/122 107/99/123 106/100/124
f 103/98/122 104/101/125 108/102/126 107/99/123
f 105/112/120 120/105/119 117/110/127 109/117/128
f 106/100/124 107/99/123 111/103/129 110/104/130
f 107/99/123 108/102/126 112/107/131 111/103/129
f 109/117/128 117/110/127 122/116/132 123/120/133
f 110/104/130 111/103/129 125/108/134 121/109/135
f 111/103/129 112/107/131 124/113/136 125/108/134
f 117/110/127 110/104/130 121/109/135 122/116/137
f 120/105/119 119/106/118 102/97/121 106/100/124
f 117/110/127 120/105/119 106/100/124 110/104/130
f 122/116/137 121/109/135 114/115/138 118/119/139
s off
f 123/120/140 122/116/141 118/119/142 113/121/143
s 9
f 125/108/134 124/113/136 116/118/144 115/114/145
f 121/109/135 125/108/134 115/114/145 114/115/138
